<svg width="64" height="64" viewBox="0 0 64 64" fill="none" xmlns="http://www.w3.org/2000/svg">
  <defs>
    <radialGradient id="bg" cx="0" cy="0" r="1" gradientUnits="userSpaceOnUse" gradientTransform="translate(22 16) rotate(52) scale(44 44)">
      <stop offset="0" stop-color="#2b0b0b" />
      <stop offset="0.6" stop-color="#120707" />
      <stop offset="1" stop-color="#050505" />
    </radialGradient>
    <linearGradient id="ring" x1="12" y1="12" x2="52" y2="52" gradientUnits="userSpaceOnUse">
      <stop stop-color="#ff5a5a" />
      <stop offset="1" stop-color="#f7b733" />
    </linearGradient>
  </defs>
  <rect width="64" height="64" rx="18" fill="url(#bg)" />
  <rect x="7" y="7" width="50" height="50" rx="14" stroke="url(#ring)" stroke-width="2.5" opacity="0.9" />
  <path d="M21 18H34.5C40.299 18 45 22.701 45 28.5C45 32.816 42.449 36.558 38.761 38.24L45.5 48H37.45L31.4 39.2H28.3V48H21V18ZM28.3 24.5V32.4H34.15C36.47 32.4 38.05 30.792 38.05 28.45C38.05 26.108 36.47 24.5 34.15 24.5H28.3Z" fill="#F5F1E8"/>
  <circle cx="49" cy="17" r="3" fill="#f7b733" opacity="0.95" />
</svg>